<svg xmlns="http://www.w3.org/2000/svg" width="1080" height="1920" viewBox="0 0 1080 1920" role="img" aria-label="THE GRAND TOTAL — 183 — commits">
<title>THE GRAND TOTAL — 183 — commits</title>
<defs><linearGradient id="gw-totals-bg" x1="0" y1="0" x2="0.35" y2="1"><stop offset="0.00" stop-color="#00c6ff"/><stop offset="0.50" stop-color="#0063e6"/><stop offset="1.00" stop-color="#14125e"/></linearGradient><radialGradient id="gw-totals-glow"><stop offset="0" stop-color="#7ae8ff" stop-opacity="0.55"/><stop offset="1" stop-color="#7ae8ff" stop-opacity="0"/></radialGradient></defs><rect width="1080" height="1920" fill="url(#gw-totals-bg)"/><circle cx="930" cy="250" r="460" fill="url(#gw-totals-glow)"/><circle cx="110" cy="1650" r="560" fill="url(#gw-totals-glow)"/>
<g fill="#ffffff" font-family="system-ui, -apple-system, &apos;Segoe UI&apos;, Roboto, Helvetica, Arial, sans-serif">
<text x="984" y="186" font-size="160" font-weight="900" fill-opacity="0.12" text-anchor="end" letter-spacing="-4">02</text>
<rect x="96" y="150" width="72" height="10" rx="5" fill="#ffffff"/>
<text x="96" y="222" font-size="36" font-weight="800" fill-opacity="0.9" letter-spacing="5">THE GRAND TOTAL</text>
<text x="96" y="538.8" font-size="280" font-weight="900" letter-spacing="-5.6">183</text>
<text x="96" y="704" font-size="72" font-weight="800">commits</text>
<text x="96" y="808.8" font-size="44" font-weight="600" fill-opacity="0.9">That&apos;s 30.5 commits per active</text><text x="96" y="866" font-size="44" font-weight="600" fill-opacity="0.9">day.</text>
<rect x="64" y="972.2" width="952" height="284" rx="40" fill="#ffffff" fill-opacity="0.14"/><text x="96" y="1048.2" font-size="40" font-weight="700">Active days</text><text x="984" y="1048.2" font-size="40" font-weight="800" fill-opacity="0.85" text-anchor="end">6</text><text x="96" y="1126.2" font-size="40" font-weight="700">Files touched</text><text x="984" y="1126.2" font-size="40" font-weight="800" fill-opacity="0.85" text-anchor="end">213</text><text x="96" y="1204.2" font-size="40" font-weight="700">Paired (top: Claude Opus 5.5)</text><text x="984" y="1204.2" font-size="40" font-weight="800" fill-opacity="0.85" text-anchor="end">183</text>
<text x="96" y="1325.4" font-size="28" font-weight="800" fill-opacity="0.75" letter-spacing="3">LINES CHANGED</text><rect x="96" y="1354.2" width="821.7" height="32" rx="16"><title>+64,596 Lines added / −4,580 Lines removed</title></rect><rect x="925.7" y="1354.2" width="58.3" height="32" rx="16" fill-opacity="0.4"><title>+64,596 Lines added / −4,580 Lines removed</title></rect><text x="96" y="1474.9" font-size="28" font-weight="700" fill-opacity="0.75">Lines added</text><text x="96" y="1439.6" font-size="44" font-weight="900">+64,596</text><text x="984" y="1474.9" font-size="28" font-weight="700" fill-opacity="0.75" text-anchor="end">Lines removed</text><text x="984" y="1439.6" font-size="44" font-weight="900" text-anchor="end">−4,580</text>
<text x="96" y="1552.2" font-size="28" font-weight="800" fill-opacity="0.75" letter-spacing="3">COMMIT SIZES</text><rect x="96" y="1580.9" width="394.6" height="32" rx="16"><title>Tiny (under 10 lines): 83 commits (45%)</title></rect><rect x="496.6" y="1580.9" width="57" height="32" rx="16" fill-opacity="0.75"><title>Small (10–99 lines): 12 commits (7%)</title></rect><rect x="559.6" y="1580.9" width="128.4" height="32" rx="16" fill-opacity="0.55"><title>Medium (100–500 lines): 27 commits (15%)</title></rect><rect x="694" y="1580.9" width="290" height="32" rx="16" fill-opacity="0.4"><title>Large (over 500 lines): 61 commits (33%)</title></rect><g><title>Tiny (under 10 lines): 83 commits (45%)</title><text x="96" y="1666.3" font-size="44" font-weight="900">45%</text><rect x="96" y="1681" width="20" height="20" rx="5"/><text x="126" y="1701.6" font-size="28" font-weight="700" fill-opacity="0.75">Tiny</text></g><g><title>Small (10–99 lines): 12 commits (7%)</title><text x="318" y="1666.3" font-size="44" font-weight="900">7%</text><rect x="318" y="1681" width="20" height="20" rx="5" fill-opacity="0.75"/><text x="348" y="1701.6" font-size="28" font-weight="700" fill-opacity="0.75">Small</text></g><g><title>Medium (100–500 lines): 27 commits (15%)</title><text x="540" y="1666.3" font-size="44" font-weight="900">15%</text><rect x="540" y="1681" width="20" height="20" rx="5" fill-opacity="0.55"/><text x="570" y="1701.6" font-size="28" font-weight="700" fill-opacity="0.75">Medium</text></g><g><title>Large (over 500 lines): 61 commits (33%)</title><text x="762" y="1666.3" font-size="44" font-weight="900">33%</text><rect x="762" y="1681" width="20" height="20" rx="5" fill-opacity="0.4"/><text x="792" y="1701.6" font-size="28" font-weight="700" fill-opacity="0.75">Large</text></g>
<text x="96" y="1820" font-size="44" font-weight="900" letter-spacing="-1">gitwrapped</text>
<text x="984" y="1818" font-size="32" font-weight="600" fill-opacity="0.8" text-anchor="end">Oct 4 – Oct 9, 2026</text>
</g>
</svg>
