<svg xmlns="http://www.w3.org/2000/svg" width="1080" height="1920" viewBox="0 0 1080 1920" role="img" aria-label="YOUR POWER HOUR — 8 PM — is when you commit the most">
<title>YOUR POWER HOUR — 8 PM — is when you commit the most</title>
<defs><linearGradient id="gw-peak-hour-bg" x1="0" y1="0" x2="1" y2="1"><stop offset="0.00" stop-color="#8e2de2"/><stop offset="0.50" stop-color="#4a00e0"/><stop offset="1.00" stop-color="#10002f"/></linearGradient><radialGradient id="gw-peak-hour-glow"><stop offset="0" stop-color="#d59bff" stop-opacity="0.55"/><stop offset="1" stop-color="#d59bff" stop-opacity="0"/></radialGradient></defs><rect width="1080" height="1920" fill="url(#gw-peak-hour-bg)"/><circle cx="930" cy="250" r="460" fill="url(#gw-peak-hour-glow)"/><circle cx="110" cy="1650" r="560" fill="url(#gw-peak-hour-glow)"/>
<g fill="#ffffff" font-family="system-ui, -apple-system, &apos;Segoe UI&apos;, Roboto, Helvetica, Arial, sans-serif">
<text x="984" y="186" font-size="160" font-weight="900" fill-opacity="0.12" text-anchor="end" letter-spacing="-4">03</text>
<rect x="96" y="150" width="72" height="10" rx="5" fill="#ffffff"/>
<text x="96" y="222" font-size="36" font-weight="800" fill-opacity="0.9" letter-spacing="5">YOUR POWER HOUR</text>
<text x="96" y="519.6" font-size="280" font-weight="900" letter-spacing="-5.6">8 PM</text>
<text x="96" y="684.8" font-size="72" font-weight="800">is when you commit</text><text x="96" y="765.4" font-size="72" font-weight="800">the most</text>
<text x="96" y="870.3" font-size="44" font-weight="600" fill-opacity="0.9">10 commits landed in the 8 PM</text><text x="96" y="927.5" font-size="44" font-weight="600" fill-opacity="0.9">hour. After-hours hero. Tuesday</text><text x="96" y="984.7" font-size="44" font-weight="600" fill-opacity="0.9">is your busiest day.</text>
<text x="96" y="1073.8" font-size="28" font-weight="800" fill-opacity="0.75" letter-spacing="3">COMMITS BY HOUR</text><path d="M100.5 1384V1223.7A6 6 0 0 1 106.5 1217.7H122.5A6 6 0 0 1 128.5 1223.7V1384Z" fill-opacity="0.35"><title>12 AM: 7 commits</title></path><path d="M137.5 1384V1342.5A6 6 0 0 1 143.5 1336.5H159.5A6 6 0 0 1 165.5 1342.5V1384Z" fill-opacity="0.35"><title>1 AM: 2 commits</title></path><path d="M174.5 1384V1342.5A6 6 0 0 1 180.5 1336.5H196.5A6 6 0 0 1 202.5 1342.5V1384Z" fill-opacity="0.35"><title>2 AM: 2 commits</title></path><path d="M211.5 1384V1318.7A6 6 0 0 1 217.5 1312.7H233.5A6 6 0 0 1 239.5 1318.7V1384Z" fill-opacity="0.35"><title>3 AM: 3 commits</title></path><path d="M248.5 1384V1366.2A6 6 0 0 1 254.5 1360.2H270.5A6 6 0 0 1 276.5 1366.2V1384Z" fill-opacity="0.35"><title>4 AM: 1 commit</title></path><path d="M285.5 1384V1342.5A6 6 0 0 1 291.5 1336.5H307.5A6 6 0 0 1 313.5 1342.5V1384Z" fill-opacity="0.35"><title>5 AM: 2 commits</title></path><path d="M322.5 1384V1342.5A6 6 0 0 1 328.5 1336.5H344.5A6 6 0 0 1 350.5 1342.5V1384Z" fill-opacity="0.35"><title>6 AM: 2 commits</title></path><path d="M359.5 1384V1366.2A6 6 0 0 1 365.5 1360.2H381.5A6 6 0 0 1 387.5 1366.2V1384Z" fill-opacity="0.35"><title>7 AM: 1 commit</title></path><path d="M396.5 1384V1295A6 6 0 0 1 402.5 1289H418.5A6 6 0 0 1 424.5 1295V1384Z" fill-opacity="0.35"><title>8 AM: 4 commits</title></path><path d="M433.5 1384V1366.2A6 6 0 0 1 439.5 1360.2H455.5A6 6 0 0 1 461.5 1366.2V1384Z" fill-opacity="0.35"><title>9 AM: 1 commit</title></path><path d="M470.5 1384V1247.5A6 6 0 0 1 476.5 1241.5H492.5A6 6 0 0 1 498.5 1247.5V1384Z" fill-opacity="0.35"><title>10 AM: 6 commits</title></path><path d="M507.5 1384V1295A6 6 0 0 1 513.5 1289H529.5A6 6 0 0 1 535.5 1295V1384Z" fill-opacity="0.35"><title>11 AM: 4 commits</title></path><path d="M544.5 1384V1342.5A6 6 0 0 1 550.5 1336.5H566.5A6 6 0 0 1 572.5 1342.5V1384Z" fill-opacity="0.35"><title>12 PM: 2 commits</title></path><path d="M581.5 1384V1271.2A6 6 0 0 1 587.5 1265.2H603.5A6 6 0 0 1 609.5 1271.2V1384Z" fill-opacity="0.35"><title>1 PM: 5 commits</title></path><path d="M618.5 1384V1271.2A6 6 0 0 1 624.5 1265.2H640.5A6 6 0 0 1 646.5 1271.2V1384Z" fill-opacity="0.35"><title>2 PM: 5 commits</title></path><path d="M655.5 1384V1295A6 6 0 0 1 661.5 1289H677.5A6 6 0 0 1 683.5 1295V1384Z" fill-opacity="0.35"><title>3 PM: 4 commits</title></path><path d="M692.5 1384V1295A6 6 0 0 1 698.5 1289H714.5A6 6 0 0 1 720.5 1295V1384Z" fill-opacity="0.35"><title>4 PM: 4 commits</title></path><path d="M729.5 1384V1247.5A6 6 0 0 1 735.5 1241.5H751.5A6 6 0 0 1 757.5 1247.5V1384Z" fill-opacity="0.35"><title>5 PM: 6 commits</title></path><path d="M766.5 1384V1295A6 6 0 0 1 772.5 1289H788.5A6 6 0 0 1 794.5 1295V1384Z" fill-opacity="0.35"><title>6 PM: 4 commits</title></path><path d="M803.5 1384V1223.7A6 6 0 0 1 809.5 1217.7H825.5A6 6 0 0 1 831.5 1223.7V1384Z" fill-opacity="0.35"><title>7 PM: 7 commits</title></path><path d="M840.5 1384V1152.5A6 6 0 0 1 846.5 1146.5H862.5A6 6 0 0 1 868.5 1152.5V1384Z"><title>8 PM: 10 commits</title></path><path d="M877.5 1384V1176.2A6 6 0 0 1 883.5 1170.2H899.5A6 6 0 0 1 905.5 1176.2V1384Z" fill-opacity="0.35"><title>9 PM: 9 commits</title></path><path d="M914.5 1384V1223.7A6 6 0 0 1 920.5 1217.7H936.5A6 6 0 0 1 942.5 1223.7V1384Z" fill-opacity="0.35"><title>10 PM: 7 commits</title></path><path d="M951.5 1384V1247.5A6 6 0 0 1 957.5 1241.5H973.5A6 6 0 0 1 979.5 1247.5V1384Z" fill-opacity="0.35"><title>11 PM: 6 commits</title></path><rect x="96" y="1384" width="888" height="2" fill-opacity="0.3"/><text x="854.5" y="1132.5" font-size="30" font-weight="800" text-anchor="middle">10</text><text x="127.6" y="1420" font-size="30" font-weight="700" fill-opacity="0.75" text-anchor="middle">12a</text><text x="336.5" y="1420" font-size="30" font-weight="700" fill-opacity="0.75" text-anchor="middle">6a</text><text x="558.5" y="1420" font-size="30" font-weight="700" fill-opacity="0.75" text-anchor="middle">12p</text><text x="780.5" y="1420" font-size="30" font-weight="700" fill-opacity="0.75" text-anchor="middle">6p</text><text x="951.7" y="1420" font-size="30" font-weight="700" fill-opacity="0.75" text-anchor="middle">11p</text>
<text x="96" y="1503.3" font-size="28" font-weight="800" fill-opacity="0.75" letter-spacing="3">BY WEEKDAY</text><path d="M115 1666V1601.3A6 6 0 0 1 121 1595.3H197.9A6 6 0 0 1 203.9 1601.3V1666Z" fill-opacity="0.35"><title>Monday: 33 commits</title></path><path d="M241.9 1666V1582A6 6 0 0 1 247.9 1576H324.7A6 6 0 0 1 330.7 1582V1666Z"><title>Tuesday: 42 commits</title></path><path d="M368.7 1666V1661.3A6 6 0 0 1 374.7 1655.3H451.6A6 6 0 0 1 457.6 1661.3V1666Z" fill-opacity="0.35"><title>Wednesday: 5 commits</title></path><rect x="495.6" y="1662" width="88.9" height="4" fill-opacity="0.15"><title>Thursday: 0 commits</title></rect><rect x="622.4" y="1662" width="88.9" height="4" fill-opacity="0.15"><title>Friday: 0 commits</title></rect><rect x="749.3" y="1662" width="88.9" height="4" fill-opacity="0.15"><title>Saturday: 0 commits</title></rect><path d="M876.1 1666V1620.6A6 6 0 0 1 882.1 1614.6H959A6 6 0 0 1 965 1620.6V1666Z" fill-opacity="0.35"><title>Sunday: 24 commits</title></path><rect x="96" y="1666" width="888" height="2" fill-opacity="0.3"/><text x="286.3" y="1562" font-size="30" font-weight="800" text-anchor="middle">42</text><text x="159.4" y="1702" font-size="30" font-weight="700" fill-opacity="0.75" text-anchor="middle">M</text><text x="286.3" y="1702" font-size="30" font-weight="700" fill-opacity="0.75" text-anchor="middle">T</text><text x="413.1" y="1702" font-size="30" font-weight="700" fill-opacity="0.75" text-anchor="middle">W</text><text x="540" y="1702" font-size="30" font-weight="700" fill-opacity="0.75" text-anchor="middle">T</text><text x="666.9" y="1702" font-size="30" font-weight="700" fill-opacity="0.75" text-anchor="middle">F</text><text x="793.7" y="1702" font-size="30" font-weight="700" fill-opacity="0.75" text-anchor="middle">S</text><text x="920.6" y="1702" font-size="30" font-weight="700" fill-opacity="0.75" text-anchor="middle">S</text>
<text x="96" y="1820" font-size="44" font-weight="900" letter-spacing="-1">gitwrapped</text>
<text x="984" y="1818" font-size="32" font-weight="600" fill-opacity="0.8" text-anchor="end">Oct 4 – Oct 7, 2026</text>
</g>
</svg>
