<svg xmlns="http://www.w3.org/2000/svg" width="1080" height="1920" viewBox="0 0 1080 1920" role="img" aria-label="YOUR COMMIT CALENDAR — 4 — active days">
<title>YOUR COMMIT CALENDAR — 4 — active days</title>
<defs><linearGradient id="gw-activity-bg" x1="0" y1="0" x2="1" y2="1"><stop offset="0.00" stop-color="#8e2de2"/><stop offset="0.50" stop-color="#4a00e0"/><stop offset="1.00" stop-color="#10002f"/></linearGradient><radialGradient id="gw-activity-glow"><stop offset="0" stop-color="#d59bff" stop-opacity="0.55"/><stop offset="1" stop-color="#d59bff" stop-opacity="0"/></radialGradient></defs><rect width="1080" height="1920" fill="url(#gw-activity-bg)"/><circle cx="930" cy="250" r="460" fill="url(#gw-activity-glow)"/><circle cx="110" cy="1650" r="560" fill="url(#gw-activity-glow)"/>
<g fill="#ffffff" font-family="system-ui, -apple-system, &apos;Segoe UI&apos;, Roboto, Helvetica, Arial, sans-serif">
<text x="984" y="186" font-size="160" font-weight="900" fill-opacity="0.12" text-anchor="end" letter-spacing="-4">05</text>
<rect x="96" y="150" width="72" height="10" rx="5" fill="#ffffff"/>
<text x="96" y="222" font-size="36" font-weight="800" fill-opacity="0.9" letter-spacing="5">YOUR COMMIT CALENDAR</text>
<text x="96" y="519.6" font-size="280" font-weight="900" letter-spacing="-5.6">4</text>
<text x="96" y="684.8" font-size="72" font-weight="800">active days</text>
<text x="96" y="789.6" font-size="44" font-weight="600" fill-opacity="0.9">Busiest day: Oct 6, 2026 with 42</text><text x="96" y="846.8" font-size="44" font-weight="600" fill-opacity="0.9">commits. You showed up in 2</text><text x="96" y="904" font-size="44" font-weight="600" fill-opacity="0.9">different weeks.</text>
<text x="326.3" y="998.6" font-size="26" font-weight="800" fill-opacity="0.75" text-anchor="middle">M</text><text x="408.7" y="998.6" font-size="26" font-weight="800" fill-opacity="0.75" text-anchor="middle">T</text><text x="491.1" y="998.6" font-size="26" font-weight="800" fill-opacity="0.75" text-anchor="middle">W</text><text x="573.5" y="998.6" font-size="26" font-weight="800" fill-opacity="0.75" text-anchor="middle">T</text><text x="655.9" y="998.6" font-size="26" font-weight="800" fill-opacity="0.75" text-anchor="middle">F</text><text x="738.3" y="998.6" font-size="26" font-weight="800" fill-opacity="0.75" text-anchor="middle">S</text><text x="820.7" y="998.6" font-size="26" font-weight="800" fill-opacity="0.75" text-anchor="middle">S</text><text x="224.3" y="1058.2" font-size="24" font-weight="700" fill-opacity="0.7">Aug</text><text x="224.3" y="1223" font-size="24" font-weight="700" fill-opacity="0.7">Sep</text><text x="224.3" y="1552.6" font-size="24" font-weight="700" fill-opacity="0.7">Oct</text><rect x="291.3" y="1014.6" width="69.9" height="69.9" rx="15.4" fill-opacity="0.08"></rect><rect x="373.8" y="1014.6" width="69.9" height="69.9" rx="15.4" fill-opacity="0.08"></rect><rect x="456.2" y="1014.6" width="69.9" height="69.9" rx="15.4" fill-opacity="0.08"></rect><rect x="538.6" y="1014.6" width="69.9" height="69.9" rx="15.4" fill-opacity="0.08"></rect><rect x="621" y="1014.6" width="69.9" height="69.9" rx="15.4" fill-opacity="0.08"></rect><rect x="703.3" y="1014.6" width="69.9" height="69.9" rx="15.4" fill-opacity="0.08"></rect><rect x="785.8" y="1014.6" width="69.9" height="69.9" rx="15.4" fill-opacity="0.08"></rect><rect x="291.3" y="1097" width="69.9" height="69.9" rx="15.4" fill-opacity="0.08"></rect><rect x="373.8" y="1097" width="69.9" height="69.9" rx="15.4" fill-opacity="0.08"></rect><rect x="456.2" y="1097" width="69.9" height="69.9" rx="15.4" fill-opacity="0.08"></rect><rect x="538.6" y="1097" width="69.9" height="69.9" rx="15.4" fill-opacity="0.08"></rect><rect x="621" y="1097" width="69.9" height="69.9" rx="15.4" fill-opacity="0.08"></rect><rect x="703.3" y="1097" width="69.9" height="69.9" rx="15.4" fill-opacity="0.08"></rect><rect x="785.8" y="1097" width="69.9" height="69.9" rx="15.4" fill-opacity="0.08"></rect><rect x="291.3" y="1179.4" width="69.9" height="69.9" rx="15.4" fill-opacity="0.08"></rect><rect x="373.8" y="1179.4" width="69.9" height="69.9" rx="15.4" fill-opacity="0.08"></rect><rect x="456.2" y="1179.4" width="69.9" height="69.9" rx="15.4" fill-opacity="0.08"></rect><rect x="538.6" y="1179.4" width="69.9" height="69.9" rx="15.4" fill-opacity="0.08"></rect><rect x="621" y="1179.4" width="69.9" height="69.9" rx="15.4" fill-opacity="0.08"></rect><rect x="703.3" y="1179.4" width="69.9" height="69.9" rx="15.4" fill-opacity="0.08"></rect><rect x="785.8" y="1179.4" width="69.9" height="69.9" rx="15.4" fill-opacity="0.08"></rect><rect x="291.3" y="1261.8" width="69.9" height="69.9" rx="15.4" fill-opacity="0.08"></rect><rect x="373.8" y="1261.8" width="69.9" height="69.9" rx="15.4" fill-opacity="0.08"></rect><rect x="456.2" y="1261.8" width="69.9" height="69.9" rx="15.4" fill-opacity="0.08"></rect><rect x="538.6" y="1261.8" width="69.9" height="69.9" rx="15.4" fill-opacity="0.08"></rect><rect x="621" y="1261.8" width="69.9" height="69.9" rx="15.4" fill-opacity="0.08"></rect><rect x="703.3" y="1261.8" width="69.9" height="69.9" rx="15.4" fill-opacity="0.08"></rect><rect x="785.8" y="1261.8" width="69.9" height="69.9" rx="15.4" fill-opacity="0.08"></rect><rect x="291.3" y="1344.2" width="69.9" height="69.9" rx="15.4" fill-opacity="0.08"></rect><rect x="373.8" y="1344.2" width="69.9" height="69.9" rx="15.4" fill-opacity="0.08"></rect><rect x="456.2" y="1344.2" width="69.9" height="69.9" rx="15.4" fill-opacity="0.08"></rect><rect x="538.6" y="1344.2" width="69.9" height="69.9" rx="15.4" fill-opacity="0.08"></rect><rect x="621" y="1344.2" width="69.9" height="69.9" rx="15.4" fill-opacity="0.08"></rect><rect x="703.3" y="1344.2" width="69.9" height="69.9" rx="15.4" fill-opacity="0.08"></rect><rect x="785.8" y="1344.2" width="69.9" height="69.9" rx="15.4" fill-opacity="0.08"></rect><rect x="291.3" y="1426.6" width="69.9" height="69.9" rx="15.4" fill-opacity="0.08"></rect><rect x="373.8" y="1426.6" width="69.9" height="69.9" rx="15.4" fill-opacity="0.08"></rect><rect x="456.2" y="1426.6" width="69.9" height="69.9" rx="15.4" fill-opacity="0.08"></rect><rect x="538.6" y="1426.6" width="69.9" height="69.9" rx="15.4" fill-opacity="0.08"></rect><rect x="621" y="1426.6" width="69.9" height="69.9" rx="15.4" fill-opacity="0.08"></rect><rect x="703.3" y="1426.6" width="69.9" height="69.9" rx="15.4" fill-opacity="0.08"></rect><rect x="785.8" y="1426.6" width="69.9" height="69.9" rx="15.4" fill-opacity="0.08"></rect><rect x="291.3" y="1509" width="69.9" height="69.9" rx="15.4" fill-opacity="0.08"></rect><rect x="373.8" y="1509" width="69.9" height="69.9" rx="15.4" fill-opacity="0.08"></rect><rect x="456.2" y="1509" width="69.9" height="69.9" rx="15.4" fill-opacity="0.08"></rect><rect x="538.6" y="1509" width="69.9" height="69.9" rx="15.4" fill-opacity="0.08"></rect><rect x="621" y="1509" width="69.9" height="69.9" rx="15.4" fill-opacity="0.08"></rect><rect x="703.3" y="1509" width="69.9" height="69.9" rx="15.4" fill-opacity="0.08"></rect><rect x="785.8" y="1509" width="69.9" height="69.9" rx="15.4" fill-opacity="0.3"><title>Oct 4, 2026: 24 commits</title></rect><rect x="291.3" y="1591.4" width="69.9" height="69.9" rx="15.4" fill-opacity="0.75"><title>Oct 5, 2026: 33 commits</title></rect><rect x="373.8" y="1591.4" width="69.9" height="69.9" rx="15.4" fill-opacity="1"><title>Oct 6, 2026: 42 commits</title></rect><rect x="456.2" y="1591.4" width="69.9" height="69.9" rx="15.4" fill-opacity="0.3"><title>Oct 7, 2026: 24 commits</title></rect><rect x="538.6" y="1591.4" width="69.9" height="69.9" rx="15.4" fill-opacity="0.08"></rect><rect x="621" y="1591.4" width="69.9" height="69.9" rx="15.4" fill-opacity="0.08"></rect><rect x="703.3" y="1591.4" width="69.9" height="69.9" rx="15.4" fill-opacity="0.08"></rect><rect x="785.8" y="1591.4" width="69.9" height="69.9" rx="15.4" fill-opacity="0.08"></rect><text x="617.8" y="1710.9" font-size="24" font-weight="700" fill-opacity="0.7" text-anchor="end">Less</text><rect x="629.8" y="1690.3" width="24" height="24" rx="5.3" fill-opacity="0.08"/><rect x="659.8" y="1690.3" width="24" height="24" rx="5.3" fill-opacity="0.3"/><rect x="689.8" y="1690.3" width="24" height="24" rx="5.3" fill-opacity="0.5"/><rect x="719.8" y="1690.3" width="24" height="24" rx="5.3" fill-opacity="0.75"/><rect x="749.8" y="1690.3" width="24" height="24" rx="5.3" fill-opacity="1"/><text x="855.7" y="1710.9" font-size="24" font-weight="700" fill-opacity="0.7" text-anchor="end">More</text>
<text x="96" y="1820" font-size="44" font-weight="900" letter-spacing="-1">gitwrapped</text>
<text x="984" y="1818" font-size="32" font-weight="600" fill-opacity="0.8" text-anchor="end">Oct 4 – Oct 7, 2026</text>
</g>
</svg>
