<svg xmlns="http://www.w3.org/2000/svg" width="1080" height="1920" viewBox="0 0 1080 1920" role="img" aria-label="YOUR HOT FILES — STATE.md — is the file you can&apos;t stop touching">
<title>YOUR HOT FILES — STATE.md — is the file you can&apos;t stop touching</title>
<defs><linearGradient id="gw-hot-files-bg" x1="0" y1="0" x2="1" y2="1"><stop offset="0.00" stop-color="#16b89a"/><stop offset="0.50" stop-color="#0d6e78"/><stop offset="1.00" stop-color="#0b1f3a"/></linearGradient><radialGradient id="gw-hot-files-glow"><stop offset="0" stop-color="#9dffc9" stop-opacity="0.55"/><stop offset="1" stop-color="#9dffc9" stop-opacity="0"/></radialGradient></defs><rect width="1080" height="1920" fill="url(#gw-hot-files-bg)"/><circle cx="930" cy="250" r="460" fill="url(#gw-hot-files-glow)"/><circle cx="110" cy="1650" r="560" fill="url(#gw-hot-files-glow)"/>
<g fill="#ffffff" font-family="system-ui, -apple-system, &apos;Segoe UI&apos;, Roboto, Helvetica, Arial, sans-serif">
<text x="984" y="186" font-size="160" font-weight="900" fill-opacity="0.12" text-anchor="end" letter-spacing="-4">06</text>
<rect x="96" y="150" width="72" height="10" rx="5" fill="#ffffff"/>
<text x="96" y="222" font-size="36" font-weight="800" fill-opacity="0.9" letter-spacing="5">YOUR HOT FILES</text>
<text x="96" y="415.5" font-size="153" font-weight="900" letter-spacing="-3.1">STATE.md</text>
<text x="96" y="555.3" font-size="72" font-weight="800">is the file you can&apos;t</text><text x="96" y="635.9" font-size="72" font-weight="800">stop touching</text>
<text x="96" y="740.7" font-size="44" font-weight="600" fill-opacity="0.9">72 commits, +110 / −33 lines.</text>
<text x="96" y="829.8" font-size="28" font-weight="800" fill-opacity="0.75" letter-spacing="3">MOST-TOUCHED FILES</text><g><title>.loop/STATE.md: 72 commits, +110 / −33 lines</title><text x="96" y="887.3" font-size="36" font-weight="800">STATE.md</text><text x="318.5" y="887.3" font-size="28" font-weight="600" fill-opacity="0.6">.loop/</text><text x="984" y="887.3" font-size="36" font-weight="800" fill-opacity="0.85" text-anchor="end">72 commits</text><rect x="96" y="903.5" width="888" height="18" rx="9" fill-opacity="0.15"/><rect x="96" y="903.5" width="888" height="18" rx="9"/></g><g><title>.loop/ROADMAP.md: 71 commits, +209 / −85 lines</title><text x="96" y="994.3" font-size="36" font-weight="800">ROADMAP.md</text><text x="398.8" y="994.3" font-size="28" font-weight="600" fill-opacity="0.6">.loop/</text><text x="984" y="994.3" font-size="36" font-weight="800" fill-opacity="0.85" text-anchor="end">71 commits</text><rect x="96" y="1010.5" width="888" height="18" rx="9" fill-opacity="0.15"/><rect x="96" y="1010.5" width="875.7" height="18" rx="9" fill-opacity="0.6"/></g><g><title>README.md: 64 commits, +1,254 / −332 lines</title><text x="96" y="1101.3" font-size="36" font-weight="800">README.md</text><text x="984" y="1101.3" font-size="36" font-weight="800" fill-opacity="0.85" text-anchor="end">64 commits</text><rect x="96" y="1117.5" width="888" height="18" rx="9" fill-opacity="0.15"/><rect x="96" y="1117.5" width="789.3" height="18" rx="9" fill-opacity="0.6"/></g><g><title>CHANGELOG.md: 45 commits, +712 / −171 lines</title><text x="96" y="1208.3" font-size="36" font-weight="800">CHANGELOG.md</text><text x="984" y="1208.3" font-size="36" font-weight="800" fill-opacity="0.85" text-anchor="end">45 commits</text><rect x="96" y="1224.5" width="888" height="18" rx="9" fill-opacity="0.15"/><rect x="96" y="1224.5" width="555" height="18" rx="9" fill-opacity="0.6"/></g><g><title>src/cards/index.js: 41 commits, +2,372 / −505 lines</title><text x="96" y="1315.3" font-size="36" font-weight="800">index.js</text><text x="272" y="1315.3" font-size="28" font-weight="600" fill-opacity="0.6">src/cards/</text><text x="984" y="1315.3" font-size="36" font-weight="800" fill-opacity="0.85" text-anchor="end">41 commits</text><rect x="96" y="1331.5" width="888" height="18" rx="9" fill-opacity="0.15"/><rect x="96" y="1331.5" width="505.7" height="18" rx="9" fill-opacity="0.6"/></g>
<text x="96" y="1418.8" font-size="28" font-weight="800" fill-opacity="0.75" letter-spacing="3">TOP FOLDERS</text><g><title>test/: 34,692 lines changed (+34,159 / −533) in 66 commits</title><text x="96" y="1476.3" font-size="36" font-weight="800">test/</text><text x="984" y="1476.3" font-size="36" font-weight="800" fill-opacity="0.85" text-anchor="end">34,692 lines</text><rect x="96" y="1492.5" width="888" height="18" rx="9" fill-opacity="0.15"/><rect x="96" y="1492.5" width="888" height="18" rx="9"/></g><g><title>src/: 15,092 lines changed (+13,543 / −1,549) in 54 commits</title><text x="96" y="1579.1" font-size="36" font-weight="800">src/</text><text x="984" y="1579.1" font-size="36" font-weight="800" fill-opacity="0.85" text-anchor="end">15,092 lines</text><rect x="96" y="1595.3" width="888" height="18" rx="9" fill-opacity="0.15"/><rect x="96" y="1595.3" width="386.3" height="18" rx="9" fill-opacity="0.6"/></g><g><title>docs/: 2,913 lines changed (+1,943 / −970) in 12 commits</title><text x="96" y="1681.8" font-size="36" font-weight="800">docs/</text><text x="984" y="1681.8" font-size="36" font-weight="800" fill-opacity="0.85" text-anchor="end">2,913 lines</text><rect x="96" y="1698" width="888" height="18" rx="9" fill-opacity="0.15"/><rect x="96" y="1698" width="74.6" height="18" rx="9" fill-opacity="0.6"/></g>
<text x="96" y="1820" font-size="44" font-weight="900" letter-spacing="-1">gitwrapped</text>
<text x="984" y="1818" font-size="32" font-weight="600" fill-opacity="0.8" text-anchor="end">Oct 4 – Oct 8, 2026</text>
</g>
</svg>
